<?xml version="1.0" encoding="UTF-8" standalone="no"?>
<svg
   fill="#000000"
   height="49.999996"
   width="50"
   version="1.1"
   id="Layer_1"
   viewBox="0 0 30.85225 30.852248"
   xml:space="preserve"
   sodipodi:docname="alert.svg"
   inkscape:version="1.3.2 (091e20e, 2023-11-25, custom)"
   xmlns:inkscape="http://www.inkscape.org/namespaces/inkscape"
   xmlns:sodipodi="http://sodipodi.sourceforge.net/DTD/sodipodi-0.dtd"
   xmlns="http://www.w3.org/2000/svg"
   xmlns:svg="http://www.w3.org/2000/svg"><defs
   id="defs2" /><sodipodi:namedview
   id="namedview2"
   pagecolor="#ffffff"
   bordercolor="#000000"
   borderopacity="0.25"
   inkscape:showpageshadow="2"
   inkscape:pageopacity="0.0"
   inkscape:pagecheckerboard="0"
   inkscape:deskcolor="#d1d1d1"
   inkscape:zoom="0.92375"
   inkscape:cx="399.45873"
   inkscape:cy="400"
   inkscape:window-width="1920"
   inkscape:window-height="974"
   inkscape:window-x="-11"
   inkscape:window-y="-11"
   inkscape:window-maximized="1"
   inkscape:current-layer="Layer_1" />
<g
   id="g2"
   transform="matrix(0.06249997,0,0,0.06251114,8.4411036e-6,-0.00275049)">
	<g
   id="g1">
		<path
   d="M 421.428,72.476 C 374.868,25.84 312.86,0.104 246.724,0.044 110.792,0.044 0.112,110.624 0,246.548 c -0.068,65.912 25.544,127.944 72.1,174.584 46.564,46.644 108.492,72.46 174.4,72.46 h 0.58 v -0.048 c 134.956,0 246.428,-110.608 246.556,-246.532 C 493.7,181.12 468,119.124 421.428,72.476 Z M 257.516,377.292 c -2.852,2.856 -6.844,4.5 -10.904,4.5 -4.052,0 -8.044,-1.66 -10.932,-4.516 -2.856,-2.864 -4.496,-6.852 -4.492,-10.916 0.004,-4.072 1.876,-8.044 4.732,-10.884 2.884,-2.86 7.218,-4.511 11.047,-4.542 3.992,0.038 7.811,1.689 10.677,4.562 2.872,2.848 4.46,6.816 4.456,10.884 -0.004,4.08 -1.696,8.052 -4.584,10.912 z m 4.596,-72.6 c -0.008,8.508 -6.928,15.404 -15.448,15.404 -8.5,-0.008 -15.42,-6.916 -15.416,-15.432 L 231.528,135 c 0.004,-8.484 3.975,-15.387 15.488,-15.414 4.093,0.021 7.895,1.613 10.78,4.522 2.912,2.916 4.476,6.788 4.472,10.912 z"
   id="path1" />
	</g>
</g>
</svg>
