<svg width="1725" height="2208" xmlns="http://www.w3.org/2000/svg" xmlns:xlink="http://www.w3.org/1999/xlink" xml:space="preserve" overflow="hidden"><g transform="translate(-1129 -129)"><path d="M864.012 0.0772282 862 0.209555 859.987 0.0772282C781.95-1.17423 703.288 12.8208 701.484 44.5647 701.917 406.808 702.35 769.052 702.784 1131.3 708.313 1177.06 627.725 1228.01 581.145 1269.16 534.566 1310.31 304.396 1440.21 208.12 1528.68 111.844 1617.16 30.3133 1745.28 3.48852 1800.02-23.3363 1854.75 112.348 1909.14 143.246 1869.3 289.997 1663.89 458.959 1521.95 686.565 1407.03 733.226 1383.79 803.708 1311.28 858.466 1261.05 918.122 1309.71 990.799 1382.56 1037.43 1407.03 1265.04 1521.95 1434 1663.89 1580.75 1869.3 1611.65 1909.14 1747.34 1854.75 1720.51 1800.02 1693.69 1745.28 1612.16 1617.16 1515.88 1528.68 1419.6 1440.21 1189.43 1310.31 1142.85 1269.16 1096.28 1228.01 1015.69 1177.06 1021.22 1131.3 1021.65 769.052 1022.08 406.808 1022.52 44.5647 1020.71 12.8208 942.05-1.17423 864.012 0.0772282Z" stroke="#000000" stroke-width="1.14583" stroke-miterlimit="8" fill="#E83643" fill-rule="evenodd" transform="matrix(-1 0 0 1 2853.5 129.5)"/><path d="M1641.94 565.613C1737.3 628.51 1758.34 761.808 1782.97 865.094 1807.6 968.379 1785.66 1048.84 1789.75 1185.33 1793.84 1321.82 1779.58 1509.95 1807.52 1684.03 1835.45 1858.11 1933.89 2110.18 1957.35 2229.81 1980.81 2349.43 1949.49 2320.74 1915.68 2233.43 1881.86 2146.12 1782.73 1886.91 1750.84 1713.19 1718.95 1539.47 1734.32 1334.9 1724.34 1191.11 1714.37 1047.33 1727.84 935.512 1690.99 850.473 1654.14 765.433 1635.02 738.767 1517.56 699.766 1509.96 665.583 1492.8 564.453 1500.4 530.269 1517.39 516.278 1546.58 502.716 1641.94 565.613Z" stroke="#000000" stroke-width="1.14583" stroke-miterlimit="8" fill="#913089" fill-rule="evenodd"/><path d="M143.464 47.1023C238.841 109.985 259.878 243.251 284.516 346.512 309.154 449.773 293.545 543.787 291.294 666.669 289.043 789.551 269.304 884.44 271.011 1083.8 272.717 1283.17 353.53 1526.05 355.899 1634.78 358.269 1743.5 318.146 1726.79 297.911 1642.02 277.675 1557.24 201.188 1251.53 205.492 1082.7 209.796 913.861 228.041 797.588 225.88 672.454 223.719 547.321 229.38 416.914 192.525 331.895 155.67 246.875 136.54 220.215 19.0666 181.224 11.4629 147.049-5.70366 45.9424 1.90001 11.7668 18.8953-2.22102 48.0877-15.7801 143.464 47.1023Z" stroke="#000000" stroke-width="1.14583" stroke-miterlimit="8" fill="#913089" fill-rule="evenodd" transform="matrix(-1 0 0 1 2477.5 555.5)"/><path d="M2036.5 2131.5C2210.29 2131.5 2355.29 2209.59 2388.82 2313.39L2392.5 2336.5 1680.5 2336.5 1684.18 2313.39C1717.71 2209.59 1862.71 2131.5 2036.5 2131.5Z" stroke="#000000" stroke-width="1.14583" stroke-miterlimit="8" fill="#F9DC00" fill-rule="evenodd"/><path d="M2142.53 556.188C2026.57 551.48 2124.77 571.486 2098.7 599.5L2428.66 598.175C2475.28 599.495 2472.75 555.703 2435.13 556.253L2142.53 556.188Z" stroke="#000000" stroke-width="1.14583" stroke-miterlimit="8" fill="#E83643" fill-rule="evenodd"/><path d="M58.0282 0.688029C-57.9304-4.01983 40.2663 15.9855 14.2004 44L344.156 42.6746C390.781 43.9948 388.246 0.202909 350.628 0.752811L58.0282 0.688029Z" stroke="#000000" stroke-width="1.14583" stroke-miterlimit="8" fill="#E83643" fill-rule="evenodd" transform="matrix(-1 0 0 1 1897.5 555.5)"/><path d="M342.558 243.214C319.801 270.734 309.021 349.116 321.072 408.887 447.999 422.567 442.331 581.115 414.865 601.839 425.512 626.95 393.681 721.45 294.354 700.171 282.852 723.572 165.993 762.437 93.4698 702.901 28.3145 693.831-2.57634 645.275 19.0523 556.236-9.75296 522.065-5.75476 457.326 30.0901 419.951-9.08405 370.769-7.85317 277.797 23.8231 245.802-26.6988 187.749 30.6363 69.7231 88.5559 65.0646 85.1287 4.56229 266.445-30.544 296.32 36.0432 404.868 72.6359 437.94 182.509 342.558 243.214Z" stroke="#000000" stroke-width="1.14583" stroke-miterlimit="8" fill="#F6B8C9" fill-rule="evenodd" transform="matrix(-0.998411 0.0563475 0.0563475 0.998411 2753.73 287.745)"/><path d="M1554.12 536.374C1532.6 563.48 1522.41 640.681 1533.81 699.552 1698.02 699.073 1668.24 870.349 1622.5 889.598 1613.96 915.494 1573.39 986.477 1508.54 986.449 1472.08 1003.68 1380.19 1036.15 1318.59 989.139 1227.91 916.251 1219.63 862.612 1244.73 794.682 1212.44 761.96 1207.13 676.931 1223.66 638.923 1202.05 619.981 1192.34 531.834 1229.36 502.192 1223.77 456.955 1255.89 378.269 1325.57 371.373 1344.43 311.782 1489.13 289.995 1531.33 336.974 1633.97 373.016 1622.22 509.141 1554.12 536.374Z" stroke="#000000" stroke-width="1.14583" stroke-miterlimit="8" fill="#F6B8C9" fill-rule="evenodd"/></g></svg>