<svg width="914" height="1171" style="background-color:white;" xmlns="http://www.w3.org/2000/svg" xmlns:xlink="http://www.w3.org/1999/xlink" xml:space="preserve" overflow="hidden"><defs><clipPath id="clip0"><rect x="3388" y="140" width="914" height="1171"/></clipPath></defs><g clip-path="url(#clip0)" transform="translate(-3388 -140)"><path d="M458.067 0.0409724 457 0.111176 455.933 0.0409724C414.561-0.622972 372.857 6.80189 371.9 23.6432 372.13 215.827 372.36 408.01 372.59 600.193 375.521 624.473 332.796 651.506 308.101 673.338 283.407 695.169 161.379 764.082 110.338 811.021 59.2957 857.961 16.071 925.935 1.84948 954.974-12.372 984.012 59.5629 1012.87 75.9439 991.731 153.745 882.755 243.323 807.45 363.991 746.482 388.729 734.15 426.096 695.682 455.126 669.035 486.754 694.851 525.284 733.496 550.009 746.482 670.677 807.45 760.255 882.755 838.056 991.731 854.437 1012.87 926.372 984.012 912.151 954.974 897.929 925.935 854.704 857.961 803.662 811.021 752.621 764.082 630.593 695.169 605.899 673.338 581.204 651.506 538.479 624.473 541.41 600.193 541.64 408.01 541.87 215.827 542.1 23.6432 541.143 6.80189 499.439-0.622972 458.067 0.0409724Z" fill="#E83643" fill-rule="evenodd" transform="matrix(-1 0 0 1 4302 140)"/><path d="M3659.87 371.99C3710.3 405.353 3721.43 476.058 3734.46 530.843 3747.49 585.629 3735.88 628.306 3738.04 700.704 3740.21 773.102 3732.67 872.896 3747.44 965.233 3762.22 1057.57 3814.28 1191.27 3826.69 1254.73 3839.1 1318.18 3822.53 1302.96 3804.65 1256.65 3786.76 1210.34 3734.33 1072.84 3717.46 980.697 3700.6 888.552 3708.73 780.042 3703.45 703.773 3698.18 627.505 3705.3 568.196 3685.81 523.088 3666.32 477.981 3656.21 463.836 3594.08 443.149 3590.06 425.017 3580.98 371.375 3585 353.243 3593.99 345.821 3609.43 338.628 3659.87 371.99Z" fill="#913089" fill-rule="evenodd"/><path d="M76.1651 24.9964C126.801 58.3671 137.969 129.089 151.049 183.888 164.13 238.687 155.843 288.579 154.648 353.79 153.453 419.002 142.973 469.358 143.879 575.157 144.785 680.956 187.689 809.851 188.947 867.549 190.205 925.246 168.904 916.379 158.161 871.391 147.418 826.404 106.81 664.167 109.096 574.569 111.381 484.971 121.067 423.267 119.919 356.861 118.772 290.454 121.778 221.25 102.211 176.131 82.6449 131.013 72.4892 116.865 10.1224 96.1726 6.08564 78.0364-3.02807 24.3809 1.00872 6.24444 10.0315-1.17866 25.5298-8.37422 76.1651 24.9964Z" fill="#913089" fill-rule="evenodd" transform="matrix(-1 0 0 1 4103 366)"/><path d="M3869 1203C3961.27 1203 4038.24 1244.14 4056.05 1298.83L4058 1311 3680 1311 3681.95 1298.83C3699.76 1244.14 3776.73 1203 3869 1203Z" fill="#F9DC00" fill-rule="evenodd"/><path d="M3924.77 366.375C3863.28 363.807 3915.35 374.719 3901.53 390L4076.52 389.277C4101.25 389.997 4099.9 366.111 4079.95 366.411L3924.77 366.375Z" fill="#E83643" fill-rule="evenodd"/><path d="M30.7748 0.37529C-30.723-2.19264 21.355 8.71939 7.53108 24.0001L182.521 23.2771C207.248 23.9972 205.903 0.110678 185.953 0.410625L30.7748 0.37529Z" fill="#E83643" fill-rule="evenodd" transform="matrix(-1 0 0 1 3795 366)"/><path d="M181.8 129.077C169.723 143.682 164.002 185.281 170.398 217.002 237.76 224.262 234.751 308.405 220.174 319.404 225.825 332.731 208.932 382.883 156.218 371.59 150.113 384.009 88.0947 404.636 49.6057 373.039 15.0269 368.225-1.3673 342.456 10.1113 295.202-5.17603 277.067-3.05413 242.709 15.9693 222.873-4.82103 196.772-4.16779 147.43 12.6432 130.45-14.1694 99.6407 16.2591 37.003 46.9978 34.5307 45.179 2.42127 141.406-16.2101 157.261 19.1286 214.869 38.5488 232.421 96.8599 181.8 129.077Z" fill="#F6B8C9" fill-rule="evenodd" transform="matrix(-0.998411 0.0563475 0.0563475 0.998411 4249.82 224.474)"/><path d="M3612.59 356.164C3601.17 370.528 3595.76 411.438 3601.81 442.634 3688.98 442.38 3673.17 533.142 3648.89 543.343 3644.35 557.066 3622.82 594.681 3588.4 594.665 3569.04 603.799 3520.26 621.003 3487.56 596.091 3439.43 557.467 3435.03 529.043 3448.36 493.045 3431.21 475.705 3428.4 430.647 3437.17 410.506 3425.7 400.469 3420.55 353.758 3440.2 338.05 3437.23 314.079 3454.28 272.382 3491.27 268.727 3501.28 237.149 3578.09 225.604 3600.5 250.499 3654.98 269.598 3648.74 341.733 3612.59 356.164Z" fill="#F6B8C9" fill-rule="evenodd"/></g></svg>